<?xml version="1.0" encoding="utf-8"?>
<!-- Generator: Adobe Illustrator 22.0.0, SVG Export Plug-In . SVG Version: 6.00 Build 0)  -->
<svg version="1.1" xmlns="http://www.w3.org/2000/svg" xmlns:xlink="http://www.w3.org/1999/xlink" x="0px" y="0px"
	 viewBox="0 0 256 256" style="enable-background:new 0 0 256 256;" xml:space="preserve">
<style type="text/css">
	.st0{display:none;}
	.st1{display:inline;}
	.st2{fill:none;stroke:#6B1D1D;stroke-width:0.5;stroke-miterlimit:10;}
	.st3{fill:#3A312A;}
	.st4{fill:#87796F;}
	.st5{fill:#D5DE58;}
	.st6{fill:#695B51;}
	.st7{fill:#FCE8CB;}
	.st8{fill:#F16C7A;}
	.st9{fill:#8AC6DD;}
	.st10{fill:#DECAAD;}
	.st11{fill:#D6DF58;}
	.st12{fill-rule:evenodd;clip-rule:evenodd;fill:#FCE8CB;}
	.st13{fill:#F5978A;}
	.st14{fill:#D7E057;}
	.st15{fill-rule:evenodd;clip-rule:evenodd;fill:#87796F;}
	.st16{fill:#6CA8BF;}
	.st17{fill:#B9C239;}
	.st18{fill:#D34E5C;}
	.st19{fill:#FAE6CA;}
	.st20{fill:#F8E4C8;}
	.st21{fill:#8AC5DC;}
	.st22{fill:#EF6D7A;}
	.st23{fill:#EB6E7A;}
	.st24{fill:#89C4DB;}
	.st25{fill-rule:evenodd;clip-rule:evenodd;fill:#F16C7A;}
	.st26{fill:#F7E3C7;}
	.st27{fill:#F6E2C6;}
	.st28{fill:#ED6E7A;}
	.st29{fill:#8AC3DA;}
	.st30{fill:#D5DC57;}
	.st31{fill-rule:evenodd;clip-rule:evenodd;fill:#D7E057;}
	.st32{fill-rule:evenodd;clip-rule:evenodd;fill:#F8E4C8;}
	.st33{fill:#D4DB56;}
	.st34{fill:#F59689;}
	.st35{fill:#DDC9AC;}
	.st36{fill:#D24E5C;}
	.st37{fill:#6A5C52;}
	.st38{fill:#6CA6BE;}
	.st39{fill:#B8C136;}
	.st40{fill-rule:evenodd;clip-rule:evenodd;fill:#FAE6CA;}
</style>
<g id="Layer_2" class="st0">
	<g class="st1">
		<g>
			<line class="st2" x1="0" y1="4.829" x2="256" y2="4.829"/>
			<line class="st2" x1="0" y1="16.56" x2="256" y2="16.56"/>
			<line class="st2" x1="0" y1="28.29" x2="256" y2="28.29"/>
			<line class="st2" x1="0" y1="40.021" x2="256" y2="40.021"/>
			<line class="st2" x1="0" y1="51.751" x2="256" y2="51.751"/>
			<line class="st2" x1="0" y1="63.482" x2="256" y2="63.482"/>
			<line class="st2" x1="0" y1="75.213" x2="256" y2="75.213"/>
			<line class="st2" x1="0" y1="86.943" x2="256" y2="86.943"/>
			<line class="st2" x1="0" y1="98.674" x2="256" y2="98.674"/>
			<line class="st2" x1="0" y1="110.404" x2="256" y2="110.404"/>
			<line class="st2" x1="0" y1="122.135" x2="256" y2="122.135"/>
			<line class="st2" x1="0" y1="133.865" x2="256" y2="133.865"/>
			<line class="st2" x1="0" y1="145.596" x2="256" y2="145.596"/>
			<line class="st2" x1="0" y1="157.326" x2="256" y2="157.326"/>
			<line class="st2" x1="0" y1="169.057" x2="256" y2="169.057"/>
			<line class="st2" x1="0" y1="180.788" x2="256" y2="180.788"/>
			<line class="st2" x1="0" y1="192.518" x2="256" y2="192.518"/>
			<line class="st2" x1="0" y1="204.249" x2="256" y2="204.249"/>
			<line class="st2" x1="0" y1="215.979" x2="256" y2="215.979"/>
			<line class="st2" x1="0" y1="227.71" x2="256" y2="227.71"/>
			<line class="st2" x1="0" y1="239.44" x2="256" y2="239.44"/>
			<line class="st2" x1="0" y1="251.171" x2="256" y2="251.171"/>
		</g>
		<g>
			<line class="st2" x1="251.171" y1="0" x2="251.171" y2="256"/>
			<line class="st2" x1="239.44" y1="0" x2="239.44" y2="256"/>
			<line class="st2" x1="227.71" y1="0" x2="227.71" y2="256"/>
			<line class="st2" x1="215.979" y1="0" x2="215.979" y2="256"/>
			<line class="st2" x1="204.249" y1="0" x2="204.249" y2="256"/>
			<line class="st2" x1="192.518" y1="0" x2="192.518" y2="256"/>
			<line class="st2" x1="180.788" y1="0" x2="180.788" y2="256"/>
			<line class="st2" x1="169.057" y1="0" x2="169.057" y2="256"/>
			<line class="st2" x1="157.326" y1="0" x2="157.326" y2="256"/>
			<line class="st2" x1="145.596" y1="0" x2="145.596" y2="256"/>
			<line class="st2" x1="133.865" y1="0" x2="133.865" y2="256"/>
			<line class="st2" x1="122.135" y1="0" x2="122.135" y2="256"/>
			<line class="st2" x1="110.404" y1="0" x2="110.404" y2="256"/>
			<line class="st2" x1="98.674" y1="0" x2="98.674" y2="256"/>
			<line class="st2" x1="86.943" y1="0" x2="86.943" y2="256"/>
			<line class="st2" x1="75.213" y1="0" x2="75.213" y2="256"/>
			<line class="st2" x1="63.482" y1="0" x2="63.482" y2="256"/>
			<line class="st2" x1="51.751" y1="0" x2="51.751" y2="256"/>
			<line class="st2" x1="40.021" y1="0" x2="40.021" y2="256"/>
			<line class="st2" x1="28.29" y1="0" x2="28.29" y2="256"/>
			<line class="st2" x1="16.56" y1="0" x2="16.56" y2="256"/>
			<line class="st2" x1="4.829" y1="0" x2="4.829" y2="256"/>
		</g>
	</g>
</g>
<g id="Layer_1">
	<g>
		<polygon class="st29" points="69.11,47.591 34.154,47.591 34.154,67.384 213.267,67.384 213.267,47.591 81.891,47.591 		"/>
		<path class="st3" d="M213.267,68.885H34.154c-0.828,0-1.5-0.672-1.5-1.5V47.591c0-0.828,0.672-1.5,1.5-1.5h34.955
			c0.828,0,1.5,0.672,1.5,1.5c0,0.828-0.672,1.5-1.5,1.5H35.654v16.794h176.112V49.091H81.891c-0.828,0-1.5-0.672-1.5-1.5
			c0-0.828,0.672-1.5,1.5-1.5h131.376c0.828,0,1.5,0.672,1.5,1.5v19.794C214.767,68.213,214.095,68.885,213.267,68.885z"/>
		<path class="st23" d="M34.154,67.385H26.32c-5.147,0-9.32-4.172-9.32-9.32v-1.154c0-5.147,4.173-9.32,9.32-9.32h7.835V67.385z"/>
		<path class="st3" d="M34.154,68.885h-7.835c-5.966,0-10.819-4.854-10.819-10.819v-1.154c0-5.967,4.854-10.82,10.819-10.82h7.835
			c0.828,0,1.5,0.672,1.5,1.5v19.794C35.654,68.213,34.982,68.885,34.154,68.885z M26.319,49.091c-4.312,0-7.819,3.508-7.819,7.82
			v1.154c0,4.312,3.508,7.819,7.819,7.819h6.335V49.091H26.319z"/>
		
			<rect x="124.153" y="47.591" transform="matrix(-1 -1.224647e-16 1.224647e-16 -1 337.4199 114.9759)" class="st23" width="89.114" height="19.793"/>
		<path class="st3" d="M213.267,68.885h-89.113c-0.828,0-1.5-0.672-1.5-1.5V47.591c0-0.828,0.672-1.5,1.5-1.5h89.113
			c0.828,0,1.5,0.672,1.5,1.5v19.794C214.767,68.213,214.095,68.885,213.267,68.885z M125.653,65.885h86.113V49.091h-86.113V65.885z
			"/>
		<polygon class="st30" points="213.267,67.385 213.267,47.591 239,57.651 		"/>
		<path class="st3" d="M213.267,68.885c-0.301,0-0.599-0.09-0.853-0.266c-0.405-0.28-0.647-0.741-0.647-1.234V47.591
			c0-0.496,0.245-0.959,0.654-1.239c0.409-0.279,0.929-0.338,1.392-0.158l25.733,10.06c0.578,0.227,0.957,0.785,0.954,1.406
			c-0.004,0.62-0.389,1.175-0.97,1.395l-25.733,9.733C213.625,68.853,213.445,68.885,213.267,68.885z M214.767,49.788v15.426
			l20.055-7.586L214.767,49.788z"/>
		<path class="st14" d="M70.911,132.22c0,0,3.408,12.659,13.222,13.246c0,0-13.1,4.525-13.321,14.202
			c0,0-2.578-13.572-12.925-14.059C57.887,145.609,69.937,143.784,70.911,132.22z"/>
		<path class="st3" d="M70.811,161.168c-0.713,0-1.335-0.506-1.473-1.218c-0.023-0.124-2.494-12.417-11.521-12.843
			c-0.771-0.036-1.388-0.65-1.428-1.421c-0.04-0.769,0.511-1.444,1.273-1.56c0.441-0.068,10.895-1.816,11.754-12.032
			c0.062-0.726,0.635-1.301,1.359-1.367c0.729-0.059,1.394,0.399,1.584,1.102c0.031,0.116,3.259,11.626,11.863,12.141
			c0.714,0.042,1.297,0.583,1.396,1.292c0.098,0.708-0.318,1.388-0.994,1.622c-0.121,0.042-12.118,4.311-12.312,12.82
			c-0.018,0.767-0.611,1.396-1.375,1.46C70.895,161.166,70.853,161.168,70.811,161.168z M63.07,145.439
			c3.878,1.969,6.229,5.746,7.586,8.877c2.026-4.021,5.942-6.788,8.949-8.428c-4.134-1.843-6.783-5.651-8.334-8.723
			C69.479,141.525,66.001,144.034,63.07,145.439z"/>
		<path class="st14" d="M49.213,149.2c0,0,2.411,8.954,9.352,9.369c0,0-9.266,3.201-9.422,10.045c0,0-1.824-9.6-9.142-9.944
			C40,158.671,48.524,157.38,49.213,149.2z"/>
		<path class="st3" d="M49.142,170.115c-0.714,0-1.337-0.507-1.473-1.22c-0.016-0.082-1.704-8.442-7.739-8.727
			c-0.771-0.036-1.388-0.65-1.428-1.421c-0.04-0.77,0.511-1.444,1.273-1.561c0.296-0.047,7.363-1.242,7.942-8.113
			c0.062-0.726,0.636-1.303,1.361-1.368c0.717-0.062,1.392,0.399,1.582,1.102l0,0c0.021,0.079,2.227,7.92,7.993,8.265
			c0.714,0.042,1.299,0.584,1.396,1.293c0.097,0.709-0.32,1.388-0.996,1.622c-0.081,0.028-8.282,2.953-8.412,8.662
			c-0.018,0.768-0.611,1.398-1.376,1.461C49.225,170.113,49.183,170.115,49.142,170.115z M44.622,158.588
			c2.107,1.332,3.523,3.395,4.447,5.279c1.376-2.232,3.516-3.872,5.365-4.973c-2.287-1.268-3.885-3.35-4.941-5.224
			C48.319,155.958,46.478,157.547,44.622,158.588z"/>
		<path class="st14" d="M49.213,122.543c0,0,2.411,8.954,9.352,9.37c0,0-9.266,3.201-9.422,10.045c0,0-1.824-9.6-9.142-9.944
			C40,132.014,48.524,130.722,49.213,122.543z"/>
		<path class="st3" d="M49.142,143.458c-0.714,0-1.337-0.507-1.473-1.22c-0.016-0.082-1.704-8.442-7.739-8.727
			c-0.771-0.036-1.388-0.65-1.428-1.421c-0.04-0.77,0.511-1.444,1.273-1.561c0.296-0.047,7.363-1.243,7.942-8.113
			c0.062-0.726,0.636-1.303,1.361-1.368c0.717-0.061,1.392,0.399,1.582,1.102l0,0c0.021,0.079,2.227,7.92,7.993,8.265
			c0.714,0.042,1.299,0.584,1.396,1.293c0.097,0.709-0.32,1.388-0.996,1.622c-0.081,0.028-8.282,2.953-8.412,8.662
			c-0.018,0.768-0.611,1.397-1.376,1.461C49.225,143.456,49.183,143.458,49.142,143.458z M44.622,131.93
			c2.107,1.333,3.523,3.395,4.447,5.28c1.376-2.233,3.516-3.872,5.365-4.973c-2.287-1.269-3.885-3.35-4.941-5.224
			C48.319,129.3,46.478,130.889,44.622,131.93z"/>
		<path class="st7" d="M117.109,17h0.139c5.925,0,10.728,4.802,10.728,10.728v17.439l0.01,0.01V32.968
			c0-5.926,4.802-10.728,10.728-10.728h0.139c5.926,0,10.728,4.802,10.728,10.728v7.337c0-5.926,4.802-10.728,10.728-10.728h0.139
			c5.925,0,10.728,4.802,10.728,10.728v7.338c0-5.926,4.802-10.728,10.728-10.728h0.139c5.926,0,10.728,4.802,10.728,10.728v36.876
			c0,0.129-0.01,0.249-0.01,0.378c-0.1,15.858-2.108,31.647-6.015,47.018l-0.805,3.172c-0.199,0-0.398-0.01-0.606-0.01H116.95
			c-0.467,0-0.925,0.03-1.372,0.089l-5.001-14.675c-2.506-7.367-9.425-12.319-17.2-12.319H74.506c-4.176,0-7.954-1.69-10.698-4.424
			c-2.734-2.734-4.424-6.512-4.424-10.688c0-8.342,6.771-15.112,15.122-15.112h24.389c4.136,0,7.487-3.351,7.487-7.487V27.728
			C106.381,21.802,111.183,17,117.109,17z"/>
		<path class="st3" d="M115.577,136.665c-0.634,0-1.21-0.402-1.419-1.017l-5.001-14.675c-2.3-6.76-8.641-11.302-15.78-11.302H74.506
			c-4.435,0-8.61-1.727-11.757-4.862c-3.138-3.137-4.865-7.309-4.865-11.75c0-9.16,7.457-16.612,16.622-16.612h24.389
			c3.301,0,5.986-2.686,5.986-5.987V27.728c0-6.742,5.485-12.228,12.229-12.228h0.139c5.897,0,10.834,4.198,11.978,9.763
			c2.244-2.759,5.664-4.523,9.488-4.523h0.139c6.523,0,11.868,5.133,12.211,11.571c2.244-2.592,5.557-4.233,9.245-4.233h0.14
			c6.523,0,11.868,5.133,12.21,11.571c2.244-2.592,5.557-4.233,9.245-4.233h0.14c6.742,0,12.227,5.485,12.227,12.228l-0.01,37.254
			c-0.1,16.019-2.14,31.959-6.061,47.387l-0.805,3.172c-0.169,0.665-0.768,1.131-1.454,1.131l-0.606-0.01H116.95
			c-0.401,0-0.797,0.025-1.174,0.076C115.709,136.661,115.643,136.665,115.577,136.665z M74.506,79.447
			c-7.512,0-13.622,6.106-13.622,13.612c0,3.64,1.415,7.059,3.984,9.627c2.579,2.569,6.002,3.985,9.638,3.985h18.871
			c8.425,0,15.907,5.359,18.62,13.335l4.626,13.573c0.108-0.003,0.218-0.004,0.327-0.004h67.826l0.515-2.031
			c3.862-15.193,5.871-30.892,5.97-46.658l0.01-0.368V47.643c0-5.088-4.14-9.228-9.227-9.228h-0.14c-5.088,0-9.228,4.14-9.228,9.228
			c0,0.828-0.672,1.5-1.5,1.5c-0.828,0-1.5-0.672-1.5-1.5v-7.338c0-5.088-4.14-9.228-9.228-9.228h-0.14
			c-5.088,0-9.227,4.14-9.227,9.228c0,0.828-0.672,1.5-1.5,1.5c-0.828,0-1.5-0.672-1.5-1.5v-7.337c0-5.089-4.14-9.229-9.229-9.229
			h-0.139c-5.088,0-9.228,4.14-9.228,9.229v12.209c0,0.594-0.351,1.132-0.893,1.372c-0.542,0.238-1.177,0.138-1.615-0.262
			c-0.312-0.285-0.502-0.697-0.502-1.12V27.728c0-5.088-4.14-9.228-9.228-9.228h-0.139c-5.089,0-9.229,4.14-9.229,9.228V70.46
			c0,4.956-4.031,8.987-8.986,8.987H74.506z"/>
		<polygon class="st8" points="105.667,213.966 105.662,213.966 105.662,239 196.617,239 196.617,172.264 105.662,172.264 
			105.662,200.701 105.667,200.701 		"/>
		<path class="st3" d="M196.616,240.5h-90.954c-0.828,0-1.5-0.672-1.5-1.5v-25.034c0-0.828,0.672-1.5,1.5-1.5
			c0.828,0,1.502,0.672,1.502,1.5c0,0.029,0,0.058-0.002,0.087V237.5h87.954v-63.735h-87.954v26.851
			c0.002,0.028,0.002,0.057,0.002,0.086c0,0.828-0.669,1.5-1.497,1.5s-1.505-0.672-1.505-1.5v-28.437c0-0.828,0.672-1.5,1.5-1.5
			h90.954c0.828,0,1.5,0.672,1.5,1.5V239C198.116,239.828,197.444,240.5,196.616,240.5z"/>
		<path class="st9" d="M139.261,135.071h-22.312c-6.233,0-11.286,5.053-11.286,11.286v25.907h90.954v-25.907
			c0-6.233-5.053-11.286-11.286-11.286h-25.278H139.261z"/>
		<path class="st3" d="M196.616,173.764h-90.954c-0.828,0-1.5-0.672-1.5-1.5v-25.906c0-7.051,5.735-12.786,12.786-12.786h68.382
			c7.051,0,12.786,5.735,12.786,12.786v25.906C198.116,173.092,197.444,173.764,196.616,173.764z M107.162,170.764h87.954v-24.406
			c0-5.396-4.39-9.786-9.786-9.786h-68.382c-5.396,0-9.786,4.39-9.786,9.786V170.764z"/>
		
			<ellipse transform="matrix(0.9239 -0.3827 0.3827 0.9239 -45.2753 79.7203)" class="st4" cx="177.753" cy="153.668" rx="8.513" ry="8.514"/>
		<path class="st3" d="M177.753,163.681c-5.521,0-10.013-4.491-10.013-10.013s4.491-10.014,10.013-10.014
			s10.014,4.492,10.014,10.014S183.274,163.681,177.753,163.681z M177.753,146.654c-3.867,0-7.013,3.146-7.013,7.014
			s3.145,7.013,7.013,7.013s7.014-3.145,7.014-7.013S181.62,146.654,177.753,146.654z"/>
		<path class="st10" d="M191.27,47.64v36.88l-0.01,0.37c-0.1,15.76-2.11,31.46-5.97,46.65l-0.51,2.03h-15l0.51-2.03
			c3.86-15.19,5.87-30.89,5.97-46.65l0.01-0.37V47.64c0-2.04-0.66-3.93-1.8-5.46c1.68-2.28,4.39-3.76,7.43-3.76h0.14
			C187.13,38.42,191.27,42.55,191.27,47.64z"/>
		<rect x="180.12" y="173.76" class="st18" width="15" height="63.74"/>
		<path class="st16" d="M185.33,136.57h-15c4.53,0,8.36,3.1,9.46,7.29c4.54,0.94,7.98,4.99,7.98,9.81c0,4.7-3.27,8.66-7.65,9.72
			v7.37h15v-24.4C195.12,140.96,190.73,136.57,185.33,136.57z"/>
	</g>
</g>
</svg>
